<?xml version="1.0" encoding="UTF-8"?>
<svg width="700px" height="600px" viewBox="0 0 386 365" version="1.1" xmlns="http://www.w3.org/2000/svg" xmlns:xlink="http://www.w3.org/1999/xlink">
    <g stroke="none" stroke-width="1" fill="none" fill-rule="evenodd">
        <g transform="translate(-210.000000, -1975.000000)" fill="#e5e5e5">
            <g transform="translate(210.000000, 1974.000000)">
                <g transform="translate(0.000000, 1.000000)">
                    <g>
                        <g>
                            <path d="M129.773336,205.951285 L256.883897,205.951285 C280.335315,205.951285 300.158547,187.476409 300.158547,165.614989 C300.158547,143.74582 280.335315,125.263194 256.883897,125.263194 C255.224855,125.263194 253.581318,125.356188 251.945533,125.518929 C246.487748,107.687263 229.897324,95.0012851 210.655532,95.0012851 C208.41505,95.0012851 205.314036,95.1872738 202.507618,95.5437521 C191.545534,86.2598169 180.009762,81.9200809 166.458331,81.9200809 C137.603396,81.9200809 114.144226,102.657819 109.376417,131.7418 C96.7785478,139.553325 88.5531083,152.743022 88.5531083,165.622739 C88.5608609,187.863886 107.050656,205.951285 129.773336,205.951285 Z" id="Shape"></path>
                            <path d="M149.922174,311.685853 L134.595413,358.392262 C134.595413,361.802054 137.991023,364.568636 142.169639,364.568636 L242.968097,364.568636 C247.146714,364.568636 250.542324,361.809804 250.542324,358.392262 L235.200057,311.685853 L149.922174,311.685853 Z" id="Shape"></path>
                            <path d="M357.60483,0.25554903 L27.5174015,0.25554903 C12.3301857,0.25554903 0.0191604099,12.5618004 0.0191604099,27.7353773 L0.0191604099,265.204181 C0.0191604099,280.385507 12.3301857,292.691759 27.5174015,292.691759 L357.60483,292.691759 C372.807551,292.691759 385.118576,280.385507 385.118576,265.204181 L385.118576,27.7276278 C385.118576,12.5540508 372.807551,0.25554903 357.60483,0.25554903 Z M351.953232,257.415905 L31.8355634,257.415905 L31.8355634,26.9061777 L351.953232,26.9061777 L351.953232,257.415905 Z"></path>
                        </g>
                    </g>
                </g>
            </g>
        </g>
    </g>
</svg>
