<svg viewBox="0.2 0.4 26.35 23.5" version="1.1" xmlns="http://www.w3.org/2000/svg">
    <g stroke="none" stroke-width="1" fill="none" fill-rule="evenodd">
        <g transform="translate(-225.000000, -25.000000)" fill="currentColor">
            <g transform="translate(-11.000000, 6.000000)">
                <g transform="translate(-485.000000, -8.000000)">
                    <g transform="translate(721.000000, 27.000000)">
                        <g>
                            <path d="M22.9579085,11.9672283 C23.3981699,11.9672283 23.7788235,11.6630435 23.8786928,11.2332971 L26.4470588,2.82487319 C26.5657516,2.31317029 26.2504575,1.80251812 25.7416993,1.68326087 C25.2329412,1.56452899 24.7252288,1.88132246 24.6060131,2.39197464 L24.3356863,3.55302536 L6.96418301,3.55302536 L6.4627451,1.18311594 C6.3696732,0.744438406 5.98379085,0.430797101 5.53777778,0.430797101 L1.19738562,0.430797101 C0.674509804,0.430797101 0.251503268,0.85634058 0.251503268,1.38065217 C0.251503268,1.90548913 0.67503268,2.33103261 1.19738562,2.33103261 L4.77281046,2.33103261 L7.17908497,13.6898913 C7.17699346,13.6988225 7.17281046,13.7072283 7.17071895,13.7161594 L6.55529412,16.7475 C6.50823529,16.9791848 6.56732026,17.2203261 6.71633987,17.4036775 C6.86535948,17.587029 7.08810458,17.6931522 7.32392157,17.6931522 L23.1937255,17.6931522 C23.6271895,17.6931522 23.9780392,17.3406341 23.9780392,16.9051087 C23.9780392,16.4695833 23.6271895,16.1170652 23.1937255,16.1170652 L8.28444444,16.1170652 L8.61071895,14.5099819 L22.9579085,11.9672283 Z"></path>
                            <ellipse id="Oval" cx="9.25124183" cy="21.6549094" rx="2.22117647" ry="2.23173913"></ellipse>
                            <ellipse id="Oval" cx="20.9845752" cy="21.6549094" rx="2.22117647" ry="2.23173913"></ellipse>
                        </g>
                    </g>
                </g>
            </g>
        </g>
    </g>
</svg>
