<svg viewBox="0 0 18 15" version="1.1" xmlns="http://www.w3.org/2000/svg">
    <g stroke="none" stroke-width="1" fill="none" fill-rule="evenodd">
        <g transform="translate(-653.000000, -29.000000)" fill="currentColor">
            <g transform="translate(-11.000000, 6.000000)">
                <g transform="translate(-243.000000, -8.000000)">
                    <path d="M922.878936,33.3132574 C923.641861,32.8565252 924.227209,32.1326959 924.503075,31.2700201 C923.789112,31.6931368 922.999147,32.0007917 922.158029,32.1663114 C921.484258,31.4486937 920.52439,31 919.462578,31 C917.422995,31 915.769624,32.6537361 915.769624,34.6929541 C915.769624,34.9823397 915.802144,35.2640521 915.86499,35.5344376 C912.796115,35.3806102 910.074721,33.9106632 908.253273,31.6763291 C907.935388,32.2214847 907.753425,32.8557944 907.753425,33.5328543 C907.753425,34.8138968 908.405274,35.9440351 909.3962,36.6064795 C908.791121,36.5871141 908.221485,36.4212289 907.723464,36.1446319 C907.723098,36.1599781 907.723098,36.1753243 907.723098,36.1910359 C907.723098,37.9799647 908.996103,39.4725656 910.685646,39.8123744 C910.375799,39.8964131 910.04951,39.941721 909.712624,39.941721 C909.474393,39.941721 909.243103,39.9187017 909.01766,39.8752208 C909.487912,41.3426101 910.851532,42.4102673 912.467268,42.440229 C911.203398,43.4304245 909.611412,44.0208879 907.880945,44.0208879 C907.58279,44.0208879 907.28902,44.0033494 907,43.9693685 C908.634736,45.0172949 910.575665,45.6285853 912.660922,45.6285853 C919.453809,45.6285853 923.167956,40.0012789 923.167956,35.1211863 C923.167956,34.9615127 923.165033,34.8018391 923.157725,34.6436271 C923.878996,34.1229523 924.505268,33.4725656 925,32.7315632 C924.338286,33.0256988 923.626515,33.2241033 922.878936,33.3132574 Z"></path>
                </g>
            </g>
        </g>
    </g>
</svg>
