<svg xmlns="http://www.w3.org/2000/svg" viewBox="4.4 7.5 49.5 43.26">
    <g>
        <path fill="currentColor" d="M45.25,23.227c-0.033,0.461-0.082,0.936-0.154,1.439c-1.198,8.304-7.781,14.331-15.651,14.331h-2.563 l-0.47,0.489c1.768,3.28,5.054,5.422,8.747,5.422h2.548l5.042,5.263c0.326,0.341,0.768,0.521,1.219,0.521 c0.211,0,0.424-0.039,0.629-0.122c0.639-0.255,1.057-0.876,1.057-1.563v-4.303c4.693-0.974,8.168-5.383,8.168-10.708 C53.82,28.549,50.096,24.036,45.25,23.227z"/>
        <path fill="currentColor" d="M42.693,24.32c0.117-0.816,0.174-1.549,0.174-2.245c0-7.99-6.021-14.492-13.423-14.492H17.848 c-7.402,0-13.424,6.502-13.424,14.492c0,7.173,4.74,13.092,11.094,14.275v6.109c0,0.803,0.488,1.523,1.232,1.822 c0.238,0.096,0.485,0.143,0.73,0.143c0.527,0,1.042-0.213,1.42-0.606l6.943-7.251h3.601C36.097,36.567,41.668,31.417,42.693,24.32z M14.116,17.596h18.866c0.527,0,0.957,0.454,0.957,1.012c0,0.558-0.43,1.011-0.957,1.011H14.116c-0.528,0-0.958-0.453-0.958-1.011 C13.158,18.05,13.588,17.596,14.116,17.596z M25.443,26.983H14.116c-0.528,0-0.958-0.453-0.958-1.01 c0-0.559,0.43-1.013,0.958-1.013h11.327c0.527,0,0.958,0.454,0.958,1.013C26.401,26.53,25.971,26.983,25.443,26.983z"/>
    </g>
</svg>
