<svg xmlns="http://www.w3.org/2000/svg" xmlns:xlink="http://www.w3.org/1999/xlink" viewBox="4.1 5.3 48.6 48.5" xml:space="preserve"><path fill="currentColor" d="M52.298,42.214L39.509,29.427l12.717-12.718c0.246-0.246,0.383-0.58,0.383-0.926 c0-0.348-0.137-0.68-0.383-0.925l-9.191-9.192c-0.49-0.49-1.358-0.49-1.85,0L28.467,18.385L15.747,5.666 c-0.492-0.49-1.359-0.49-1.851,0L4.565,15c-0.509,0.512-0.509,1.339,0,1.851l12.718,12.718L4.638,42.217 c-0.513,0.51-0.513,1.339,0,1.849l9.189,9.19c0.511,0.51,1.337,0.51,1.849,0L28.324,40.61l12.791,12.789 c0.253,0.256,0.589,0.383,0.924,0.383c0.335,0,0.671-0.127,0.926-0.383l9.333-9.334c0.247-0.245,0.383-0.578,0.383-0.925 C52.682,42.794,52.545,42.461,52.298,42.214z"/></svg>
