<svg viewBox="0.2 0.55 24.85 24.84" version="1.1" xmlns="http://www.w3.org/2000/svg">
    <g stroke="none" stroke-width="1" fill="none" fill-rule="evenodd">
        <g transform="translate(-184.000000, -24.000000)" fill="currentColor">
            <g transform="translate(-11.000000, 6.000000)">
                <g transform="translate(-485.000000, -8.000000)">
                    <path d="M704.436186,46.4907241 C700.447006,44.9490192 696.018407,43.0347315 695.646323,41.8421672 L695.646323,40.5907477 C696.473786,39.7443313 697.126679,38.5637375 697.512729,37.1811409 C698.025966,36.8205286 698.364632,36.2130241 698.364632,35.5232221 C698.364632,35.0334278 698.187069,34.5900193 697.903268,34.2413775 L697.903268,31.4402728 C697.903268,28.5483916 696.292732,26.5687647 692.611793,26.5687647 C689.025621,26.5687647 687.318324,28.5483916 687.318324,31.4402728 L687.318324,34.2423751 C687.036019,34.5900193 686.857957,35.0334278 686.857957,35.5232221 C686.857957,36.2125253 687.195626,36.8195311 687.708862,37.1806421 C688.094912,38.5632387 688.748304,39.7443313 689.576266,40.5907477 L689.576266,41.8416684 C689.205179,43.0332352 684.775583,44.9480217 680.786403,46.4902253 C680.44624,46.6224 680.221294,46.953086 680.221294,47.3226762 L680.221294,50.451973 C680.221294,50.9432636 680.614327,51.3427801 681.099133,51.3427801 L704.123456,51.3427801 C704.608262,51.3427801 705.001295,50.9432636 705.001295,50.451973 L705.001295,47.3231749 C705.001295,46.953086 704.776349,46.6214024 704.436186,46.4907241 Z"></path>
                </g>
            </g>
        </g>
    </g>
</svg>
