<svg xmlns="http://www.w3.org/2000/svg" viewBox="5.7 4.78 46.2 49.4">
    <g>
        <path fill="currentColor" d="M415.581,2316.095l-6.135-22.217c-0.203-0.738-0.875-1.25-1.643-1.25h-15.713 c-0.766,0-1.438,0.512-1.643,1.25l-6.133,22.217c-0.143,0.512-0.037,1.062,0.285,1.484c0.322,0.424,0.824,0.673,1.355,0.673h19.229 v6.021c-0.477,0.249-0.805,0.741-0.805,1.316c0,0.82,0.664,1.485,1.486,1.485c0.82,0,1.486-0.665,1.486-1.485 c0-0.575-0.328-1.067-0.805-1.316v-6.021h7.391c0.531,0,1.033-0.249,1.355-0.673 C415.616,2317.157,415.722,2316.606,415.581,2316.095z"/>
        <path fill="currentColor" d="M408.825,2337.704h-7.174v-17.431h-3.408v17.431h-6.867c-0.939,0-1.703,0.763-1.703,1.703 c0,0.941,0.764,1.705,1.703,1.705h17.449c0.941,0,1.703-0.764,1.703-1.705C410.528,2338.467,409.767,2337.704,408.825,2337.704z"/>
    </g>
    <path fill="currentColor" d="M51.762,27.97c0-12.732-10.296-23.089-22.95-23.089C16.158,4.88,5.862,15.238,5.862,27.97 c0,3.99,1.037,7.906,2.986,11.365v2.613c0,1.137,0.922,2.059,2.06,2.059h4.86c1.137,0,2.059-0.922,2.059-2.059V28.313 c0-1.139-0.922-2.06-2.059-2.06h-4.86c-0.308,0-0.599,0.072-0.861,0.195c0.772-9.751,8.892-17.451,18.765-17.451 c9.883,0,18.006,7.711,18.768,17.472c-0.273-0.134-0.577-0.216-0.902-0.216h-4.86c-1.138,0-2.06,0.921-2.06,2.06v13.635 c0,1.137,0.922,2.059,2.06,2.059h1.794c-2.385,3.123-6.195,5.428-10.672,6.289c-0.438-0.605-1.145-1.004-1.946-1.004h-3.911 c-1.326,0-2.406,1.08-2.406,2.406s1.08,2.406,2.406,2.406h3.911c1.11,0,2.038-0.76,2.314-1.783 c5.554-1.066,10.206-4.162,12.796-8.314h0.574c1.137,0,2.059-0.922,2.059-2.059v-2.539C50.711,35.933,51.762,31.987,51.762,27.97z"/>
</svg>
